<svg width="444" height="91" viewBox="0 0 1334 273" fill="none" xmlns="http://www.w3.org/2000/svg">
<path d="M1180.55 77.9413V149.086C1180.55 151.464 1179.13 152.884 1176.76 152.884H1154.52C1152.15 152.884 1150.73 151.464 1150.73 149.086L1150.72 77.9413C1150.72 75.5653 1152.14 74.1453 1154.52 74.1453H1176.76C1179.13 74.1453 1180.55 75.5653 1180.55 77.9413ZM1181.4 40.3013H1149.87C1127.78 40.3013 1114.05 53.176 1114.05 73.9027V153.128C1114.05 173.853 1127.78 186.728 1149.87 186.728H1181.4C1203.5 186.728 1217.22 173.853 1217.22 153.128V73.9027C1217.22 53.176 1203.5 40.3013 1181.4 40.3013Z" fill="white"/>
<path d="M586.467 79.5547V122.82C586.467 125.193 585.047 126.609 582.669 126.609H560.689V75.7653H582.669C585.047 75.7653 586.467 77.1827 586.467 79.5547ZM587.525 41.9213H524.012V185.107H560.689V160.453H587.321C609.417 160.453 623.144 147.581 623.144 126.861V75.5147C623.144 54.7933 609.496 41.9213 587.525 41.9213Z" fill="white"/>
<path d="M435.472 123.627V41.9213H400.823V185.107H442.003L473.38 106.359V185.107H508.033V41.9213H466.856L435.472 123.627Z" fill="white"/>
<path d="M318.499 113.245L295.787 41.9213H252.165V185.107H286.815V108.396L306.053 166.108H330.951L350.191 108.783V185.107H384.843V41.9213H341.22L318.499 113.245Z" fill="white"/>
<path d="M1292.87 151.665H1269.87V127.508H1292.87C1295.25 127.508 1296.67 128.924 1296.67 131.296V147.877C1296.67 150.249 1295.25 151.665 1292.87 151.665ZM1292.87 97.9093H1269.87V75.3627H1292.87C1295.25 75.3627 1296.67 76.7787 1296.67 79.1507V94.112C1296.67 96.4893 1295.25 97.9093 1292.87 97.9093ZM1333.33 88.4507V75.5147C1333.33 54.7933 1319.61 41.9213 1297.52 41.9213H1233.2V185.107H1297.52C1319.61 185.107 1333.33 172.235 1333.33 151.515V135.748C1333.33 126.74 1329.84 120.696 1321.99 116.153L1315.58 112.487L1322.41 108.235C1329.97 103.536 1333.33 97.4347 1333.33 88.4507Z" fill="white"/>
<path d="M1071.01 41.9213L1049.19 95.884H1037.61V41.9213H1000.94V185.107H1037.61V129.729H1048.97L1069.28 184.813L1069.39 185.107H1109.96L1082.1 111.7L1109.97 41.9213H1071.01Z" fill="white"/>
<path d="M948.283 95.884H918.463V41.9213H881.788V185.107H918.463V129.729H948.283V185.107H984.957V41.9213H948.283V95.884Z" fill="white" style="background-color: blue;"/>
<path d="M761.365 41.9213H660.22V75.7653H692.556V185.107H729.025V75.7653H761.365V41.9213Z" fill="white"/>
<path d="M825.433 126.609H803.68L810.275 75.7653H818.732L825.433 126.609ZM851.451 41.9213H777.556L757.823 185.107H796.124L799.291 160.453H829.916L833.083 185.107H871.176L851.451 41.9213Z" fill="white"/>
<path d="M141.233 172.697L102.907 148.568L102.668 148.417L64.1011 172.697L74.8547 128.448L74.9213 128.176L39.9328 99.1493L85.6604 96.1267L102.67 53.4533L119.669 96.1267L165.405 99.148L130.631 127.997L130.414 128.176L141.233 172.697ZM156.993 8.1145e-06H48.3489L0.159375 40.4347L0 40.568V186.517L102.381 272.429L102.67 272.672L205.183 186.652L205.341 186.517V40.568L157.119 0.105347L156.993 8.1145e-06Z" fill="white"/>
</svg>